<svg width="0" height="0" class="hidden">
  <symbol fill="none" xmlns="http://www.w3.org/2000/svg" viewBox="0 0 40 40" id="logo">
    <g clip-path="url(#clip0_1_18)">
      <path d="M32.584 4.44963C32.5609 4.42646 32.5145 4.40328 32.4913 4.35693C32.5145 4.40328 32.5609 4.42646 32.584 4.44963Z" fill="#FFFAF7"></path>
      <path d="M32.1437 4.10198C32.2596 4.19468 32.3754 4.28738 32.4913 4.3569C32.3754 4.28738 32.2596 4.19468 32.1437 4.10198C32.1205 4.0788 32.0742 4.05563 32.051 4.03245L32.0046 4.00928L32.051 4.03245C32.0742 4.05563 32.1205 4.0788 32.1437 4.10198Z" fill="#FFFAF7"></path>
      <path d="M31.9583 3.96285L31.8888 3.9165L31.9583 3.96285Z" fill="#FFFAF7"></path>
      <path d="M31.7033 3.77757C31.7265 3.80074 31.7265 3.80074 31.7497 3.82392C31.7497 3.80074 31.7265 3.80074 31.7033 3.77757L31.657 3.75439L31.7033 3.77757Z" fill="#FFFAF7"></path>
      <path d="M31.6802 3.75434C31.6339 3.73116 31.6107 3.70799 31.5875 3.68481C31.6107 3.70799 31.6339 3.73116 31.6802 3.75434Z" fill="#FFFAF7"></path>
      <path d="M31.2631 3.47626C31.2167 3.45309 31.1936 3.42991 31.1472 3.40674C31.1936 3.42991 31.2399 3.45309 31.2631 3.47626Z" fill="#FFFAF7"></path>
      <path d="M23.2909 0.278021C23.2213 0.254846 23.1286 0.254846 23.0591 0.231671C23.0128 0.231671 22.9896 0.231671 22.9432 0.208496C22.9896 0.208496 23.0128 0.208496 23.0591 0.231671C23.1286 0.231671 23.2213 0.254846 23.2909 0.278021Z" fill="#FFFAF7"></path>
      <path d="M28.4589 1.87724C28.2503 1.78454 28.0649 1.69184 27.8795 1.62231C28.0881 1.69184 28.2735 1.78454 28.4589 1.87724Z" fill="#FFFAF7"></path>
      <path d="M30.7764 3.15186C30.8227 3.17503 30.8691 3.19821 30.8922 3.22138C30.8691 3.19821 30.8227 3.17503 30.7764 3.15186Z" fill="#FFFAF7"></path>
      <path d="M26.0718 0.926929C26.0255 0.903754 25.9791 0.903754 25.9328 0.880579C25.8864 0.857404 25.8401 0.857404 25.7937 0.834229C25.8401 0.857404 25.8864 0.857404 25.9328 0.880579C25.9559 0.903754 26.0023 0.926929 26.0718 0.926929Z" fill="#FFFAF7"></path>
      <path d="M25.3071 0.718488C25.2839 0.695312 25.2607 0.695312 25.2375 0.695312H25.2144H25.2375C25.2607 0.695312 25.2839 0.695312 25.3071 0.718488Z" fill="#FFFAF7"></path>
      <path d="M27.7405 1.55273C27.81 1.57591 27.8564 1.59908 27.8795 1.62226C27.8332 1.59908 27.81 1.57591 27.7405 1.55273Z" fill="#FFFAF7"></path>
      <path d="M30.2666 2.82737L30.3593 2.8969C30.4288 2.94325 30.4983 2.96642 30.5447 3.01277C30.4751 2.96642 30.4288 2.94325 30.3593 2.8969L30.2666 2.82737C30.2434 2.82737 30.2434 2.8042 30.2202 2.8042C30.2434 2.82737 30.2434 2.82737 30.2666 2.82737Z" fill="#FFFAF7"></path>
      <path d="M32.7462 4.58853C32.6999 4.54218 32.6535 4.51901 32.6072 4.47266C32.6535 4.51901 32.6999 4.54218 32.7462 4.58853Z" fill="#FFFAF7"></path>
      <path d="M29.9885 2.665C30.0348 2.68818 30.0812 2.71135 30.1275 2.73453C30.0812 2.71135 30.0348 2.68818 29.9885 2.665L29.9653 2.64183C29.9421 2.64183 29.9421 2.61865 29.9189 2.61865C29.9421 2.61865 29.9421 2.64183 29.9653 2.64183L29.9885 2.665Z" fill="#FFFAF7"></path>
      <path d="M28.5052 1.90044L28.6675 1.99314C28.737 2.01631 28.8065 2.06266 28.8529 2.08584C28.7833 2.06266 28.7138 2.01631 28.6675 1.99314L28.5052 1.90044C28.5052 1.90044 28.5052 1.87726 28.5052 1.90044C28.5052 1.87726 28.5052 1.90044 28.5052 1.90044Z" fill="#FFFAF7"></path>
      <path d="M27.022 1.27464C27.1611 1.32099 27.3233 1.39051 27.5087 1.46004C27.5319 1.46004 27.5319 1.46004 27.555 1.48321C27.5319 1.48321 27.5319 1.48321 27.5087 1.46004C27.3233 1.39051 27.1611 1.32099 27.022 1.27464L26.9293 1.25146H26.9061H26.9293L27.022 1.27464Z" fill="#FFFAF7"></path>
      <path d="M0.208496 17.1032C0.208496 17.08 0.208496 17.0337 0.231671 17.0105V16.9873V17.0105C0.208496 17.0337 0.208496 17.0568 0.208496 17.1032Z" fill="#FFFAF7"></path>
      <path d="M0.115845 17.7751C0.115845 17.7519 0.115845 17.7287 0.115845 17.7056C0.13902 17.7287 0.115845 17.7519 0.115845 17.7751Z" fill="#FFFAF7"></path>
      <path d="M0.0463683 18.54V18.5168C0.0463683 18.5168 0.0463683 18.5168 0.0463683 18.54C0.0463683 18.6095 0.0231934 18.7022 0.0231934 18.7718C0.0463683 18.6791 0.0463683 18.6095 0.0463683 18.54Z" fill="#FFFAF7"></path>
      <path d="M10.4519 26.7207C10.4519 26.7439 10.4751 26.7671 10.4751 26.7671C10.4519 26.7671 10.4519 26.7439 10.4519 26.7207Z" fill="#FFFAF7"></path>
      <path d="M20.7416 0.0231934C21.1819 0.0463683 21.6454 0.0695433 22.0857 0.115893C21.6454 0.0695433 21.2051 0.0231934 20.7416 0.0231934Z" fill="#FFFAF7"></path>
      <path d="M24.1947 0.440186C24.3337 0.463361 24.4496 0.486536 24.5655 0.532886C24.4496 0.486536 24.3106 0.463361 24.1947 0.440186Z" fill="#FFFAF7"></path>
      <path d="M28.8992 2.08569C29.2004 2.22474 29.4785 2.38697 29.7566 2.54919C29.4785 2.38697 29.2004 2.22474 28.8992 2.08569Z" fill="#FFFAF7"></path>
      <path d="M33.0243 4.82043C32.9779 4.79725 32.9547 4.7509 32.9084 4.72773L32.8389 4.6582L32.9084 4.72773C32.9547 4.7509 33.0011 4.79725 33.0243 4.82043Z" fill="#FFFAF7"></path>
      <path d="M13.4646 8.71369C15.1795 6.88286 17.2653 5.44602 19.6291 4.54219C20.3476 4.26409 21.066 4.03234 21.8076 3.87012C21.066 4.05552 20.3476 4.26409 19.6291 4.54219C17.2421 5.46919 15.1564 6.88286 13.4646 8.71369Z" fill="#FFFAF7"></path>
      <path d="M17.0104 34.183C15.0405 33.0011 13.3256 31.402 11.9814 29.4785C11.4947 28.7832 11.0776 28.0648 10.7068 27.3C11.0776 28.0416 11.4947 28.7832 11.9814 29.4785C13.3256 31.3788 15.0405 32.9779 17.0104 34.183Z" fill="#FFFAF7"></path>
      <path d="M4.28737 30.2666C1.5759 27.5783 0.0695249 24.0093 0 20.2086V20.1623V20.0927C0 20.0696 0 20.0464 0 20.0464C0 20.0696 0 20.0927 0 20.0927C0 20.1159 0 20.1391 0 20.1623V20.2086C0.0695249 24.0093 1.5759 27.5783 4.28737 30.2666C6.99884 32.9317 10.591 34.4149 14.4148 34.4149C15.0174 34.4149 15.6199 34.3685 16.2225 34.299C15.6199 34.3685 15.0174 34.4149 14.4148 34.4149C10.591 34.4149 6.99884 32.9317 4.28737 30.2666Z" fill="#FFFAF7"></path>
      <path d="M33.4647 5.2143C33.511 5.26065 33.5342 5.28383 33.5805 5.307C33.5574 5.28383 33.511 5.26065 33.4647 5.2143L33.4183 5.16795L33.3951 5.14478L33.4183 5.16795L33.4647 5.2143Z" fill="#FFFAF7"></path>
      <path d="M34.0209 5.72424C33.9977 5.70106 33.9745 5.67789 33.9513 5.65471C33.9282 5.63154 33.8818 5.58519 33.8586 5.56201C33.8818 5.58519 33.9282 5.63154 33.9513 5.65471C33.9513 5.67789 33.9977 5.70106 34.0209 5.72424Z" fill="#FFFAF7"></path>
      <path d="M33.7195 5.44597C33.6964 5.4228 33.65 5.39962 33.6268 5.35327C33.65 5.37645 33.6732 5.4228 33.7195 5.44597Z" fill="#FFFAF7"></path>
      <path d="M0.23175 16.9409V16.9872C0.23175 17.0104 0.23175 17.0568 0.208575 17.0799V17.1031C0.208575 17.1263 0.208575 17.1495 0.208575 17.1726V17.219V17.2422V17.2653V17.2885C0.208575 17.358 0.1854 17.4276 0.1854 17.4971C0.1854 17.5666 0.162225 17.613 0.162225 17.6825C0.162225 17.7057 0.162225 17.7288 0.162225 17.752C0.162225 17.8215 0.13905 17.8911 0.13905 17.9606C0.13905 18.0069 0.13905 18.0765 0.115875 18.1228V18.1692C0.115875 18.1923 0.115875 18.2155 0.115875 18.2387C0.115875 18.2619 0.115875 18.285 0.115875 18.3082C0.115875 18.3314 0.115875 18.3314 0.115875 18.3546C0.115875 18.3777 0.115875 18.3777 0.115875 18.4009C0.115875 18.4241 0.115875 18.4473 0.115875 18.4704V18.4936C0.115875 18.5631 0.0926999 18.6558 0.0926999 18.7254C0.0926999 18.7717 0.0926999 18.7949 0.0926999 18.8412C0.0926999 18.8876 0.0926999 18.9108 0.0926999 18.9571C0.0926999 18.9571 0.0926999 18.9571 0.0926999 18.9803V19.0035V19.0266V19.0498C0.0926999 19.0962 0.0926999 19.1425 0.0926999 19.1889C0.0926999 19.212 0.0926999 19.2352 0.0926999 19.2352C0.0926999 19.3279 0.0926999 19.3974 0.0926999 19.467C0.0926999 19.4901 0.0926999 19.4901 0.0926999 19.5133V19.5365C0.0926999 19.606 0.0926999 19.6755 0.0926999 19.7219V19.7682V19.7914V19.8609C0 19.9305 0 19.9305 0 19.9536C0 19.9768 0 19.9768 0 20C0 20.0232 0 20.0232 0 20.0463C0 20.0695 0 20.0927 0 20.0927V20.1622V20.2086C0.0463499 24.0093 1.5759 27.5782 4.28737 30.2433C6.99884 32.9084 10.591 34.3916 14.4148 34.3916C15.0174 34.3916 15.6199 34.3453 16.2225 34.2758C16.5006 34.2526 16.7555 34.2062 17.0336 34.1599C15.0637 32.978 13.3488 31.3789 12.0046 29.4554C11.518 28.7601 11.1008 28.0417 10.73 27.2769C10.6373 27.1147 10.5678 26.9293 10.4983 26.7671C10.4983 26.7439 10.4751 26.7207 10.4751 26.7207C9.54809 24.6118 9.06141 22.3407 9.06141 20C9.06141 16.5933 10.0811 13.3256 12.0278 10.5214C12.4681 9.87252 12.9548 9.26997 13.4878 8.71377C15.2028 6.88295 17.2885 5.4461 19.6524 4.54228C20.3708 4.26418 21.0892 4.03243 21.8308 3.8702C23.0591 3.56893 24.3337 3.42988 25.6315 3.42988C28.6443 3.42988 31.5411 4.241 34.0672 5.7242C34.044 5.70103 34.0209 5.67785 33.9977 5.65467C33.9745 5.6315 33.9282 5.58515 33.905 5.56198L33.8818 5.5388C33.8586 5.51562 33.8123 5.49245 33.7891 5.4461C33.7659 5.42292 33.7196 5.39975 33.6964 5.3534C33.6964 5.3534 33.6964 5.3534 33.6732 5.33022C33.6269 5.30705 33.6037 5.2607 33.5574 5.23753L33.511 5.19117L33.4878 5.168C33.4415 5.12165 33.3951 5.0753 33.3256 5.02895C33.2561 4.9826 33.2097 4.93625 33.1634 4.8899C33.1402 4.86673 33.117 4.86673 33.117 4.84355C33.0707 4.82038 33.0475 4.77403 33.0012 4.75085L32.9316 4.68133L32.8853 4.63498L32.8621 4.6118L32.8389 4.58863C32.7926 4.54228 32.7462 4.5191 32.6999 4.47275C32.6767 4.44958 32.6304 4.4264 32.6072 4.38005C32.4913 4.28735 32.3754 4.19465 32.2827 4.12513C32.2596 4.10195 32.2132 4.07878 32.19 4.0556L32.1437 4.03243L32.1205 4.00925C32.1205 4.00925 32.1205 4.00925 32.0973 4.00925L32.0278 3.9629L32.0046 3.93973L31.9119 3.8702L31.8888 3.84703C31.8656 3.82385 31.8656 3.82385 31.8424 3.80068L31.8192 3.7775C31.7961 3.75433 31.7497 3.73115 31.7265 3.70798L31.7034 3.6848C31.6107 3.61528 31.5411 3.56893 31.4484 3.4994C31.4021 3.47623 31.3789 3.45305 31.3326 3.42988L31.3094 3.4067C31.263 3.36035 31.1935 3.33718 31.1472 3.29083C31.124 3.29083 31.124 3.26765 31.1008 3.26765C31.0545 3.24448 31.0081 3.2213 30.9849 3.19813C30.9154 3.15178 30.8691 3.1286 30.7995 3.08225C30.73 3.0359 30.6837 3.01273 30.6141 2.96638L30.5214 2.89685C30.4983 2.89685 30.4983 2.87368 30.4751 2.87368C30.4519 2.87368 30.4287 2.8505 30.4056 2.8505C30.3824 2.8505 30.3824 2.82733 30.3592 2.82733C30.3129 2.80415 30.2665 2.78098 30.2202 2.7578L30.197 2.73463C30.1738 2.73463 30.1738 2.71145 30.1506 2.71145C30.1043 2.68828 30.0579 2.6651 30.0348 2.64193C30.0348 2.64193 30.0348 2.64193 30.0116 2.64193C29.7335 2.4797 29.4322 2.34065 29.1541 2.17843H29.1309C29.0614 2.15525 28.9919 2.1089 28.9455 2.08573L28.5052 1.90033C28.5052 1.90033 28.5052 1.90033 28.482 1.90033C28.2735 1.80763 28.0881 1.71493 27.9027 1.6454C27.8563 1.62223 27.81 1.59905 27.7636 1.59905H27.7404H27.7173L27.6477 1.57588C27.6246 1.57588 27.6014 1.5527 27.555 1.5527C27.5319 1.5527 27.5319 1.5527 27.5087 1.52953C27.3233 1.46 27.1611 1.39048 27.022 1.34413L26.9293 1.32095H26.9061L26.8134 1.29778C26.5585 1.20508 26.3268 1.11238 26.0487 1.04286C26.0487 1.04286 26.0487 1.04286 26.0255 1.04286C25.9791 1.01968 25.9328 1.01968 25.8864 0.996505C25.8401 0.97333 25.7937 0.97333 25.7474 0.950155C25.7242 0.950155 25.6779 0.92698 25.6547 0.92698C25.5388 0.903805 25.4461 0.857455 25.3302 0.834281C25.3071 0.834281 25.3071 0.834281 25.2839 0.834281C25.2839 0.695231 25.2607 0.695231 25.2375 0.695231H25.2144H25.1912C24.9826 0.648881 24.774 0.579356 24.5423 0.533006C24.4264 0.509831 24.2874 0.486656 24.1715 0.440306C23.9629 0.393956 23.7312 0.347606 23.5226 0.301256C23.4531 0.278081 23.3604 0.278081 23.2908 0.254906C23.2213 0.231731 23.1286 0.231731 23.0591 0.208556C23.0127 0.208556 22.9896 0.208556 22.9432 0.185381C22.8969 0.185381 22.8505 0.162206 22.8042 0.162206C22.5724 0.139031 22.3407 0.0926815 22.1089 0.0695065C21.6686 0.0231566 21.2051 -1.8388e-05 20.7648 -0.0231934C20.5098 -1.8388e-05 20.2549 -1.8388e-05 20 -1.8388e-05C19.5829 -1.8388e-05 19.1425 0.0231566 18.7254 0.0463316C18.679 0.0463316 18.6327 0.0463316 18.5863 0.0463316C18.1228 0.0695065 17.6593 0.115856 17.1958 0.185381C17.1031 0.208556 17.0336 0.208556 16.9409 0.231731L0.23175 16.9409Z" fill="#005FA3"></path>
      <path d="M39.7682 23.036V23.0128C39.7682 22.9896 39.7682 22.9664 39.7914 22.9201V22.8969C39.7914 22.8506 39.8146 22.8274 39.8146 22.7811V22.7579V22.7347C39.8146 22.7115 39.8146 22.7115 39.8146 22.7115L39.8378 22.5957L39.8609 22.503C39.8609 22.4102 39.8841 22.3407 39.8841 22.2712C39.8841 22.2017 39.9073 22.1322 39.9073 22.0626C39.9073 21.9931 39.9305 21.9468 39.9305 21.9004V21.8541C39.9305 21.8077 39.9305 21.7845 39.9305 21.7382V21.715V21.6918C39.9305 21.6455 39.9305 21.5991 39.9536 21.5296V21.5064C39.9536 21.4369 39.9768 21.3674 39.9768 21.2747C39.9768 21.2052 39.9768 21.1125 40 21.0429V21.0198V20.9966V20.9734C40 20.9039 40 20.8344 40 20.788C40 20.6953 40 20.6258 40 20.5331V20.4867C40 20.4172 40 20.3709 40 20.3013V20.1623C40 20.1159 40 20.0696 40 20.0001C40 19.9537 40 19.8842 40 19.8378V19.7915C39.9536 15.9908 38.4241 12.4218 35.7126 9.75672C33.0011 7.0916 29.409 5.6084 25.5851 5.6084C24.7045 5.6084 23.8239 5.67792 22.9896 5.84015C24.9594 7.02207 26.6744 8.62114 28.0185 10.5447C29.9652 13.3257 30.9849 16.5933 30.9849 20.0232C30.9849 23.43 29.9652 26.6976 28.0185 29.5018C26.1182 32.2133 23.4762 34.299 20.394 35.4809C18.4936 36.2225 16.4774 36.5933 14.4148 36.5933C11.4021 36.5933 8.5052 35.7822 5.97913 34.299H6.0023C6.02548 34.3222 6.02548 34.3222 6.04865 34.3454L6.095 34.3917C6.11818 34.4149 6.16453 34.4612 6.1877 34.4844C6.23405 34.5308 6.30358 34.6003 6.3731 34.6466C6.41945 34.693 6.4658 34.7162 6.48898 34.7625C6.5585 34.832 6.62803 34.9016 6.72073 34.9711C6.76708 35.0174 6.81343 35.0638 6.85978 35.1101L6.88295 35.1333L7.022 35.2492L7.04517 35.2724C7.09152 35.2955 7.1147 35.3419 7.16105 35.3651L7.18422 35.3882L7.2074 35.4114C7.23057 35.4346 7.27692 35.4809 7.32327 35.5041H7.34645H7.36962C7.3928 35.5273 7.43915 35.5505 7.46232 35.5736C7.5782 35.6663 7.6709 35.7359 7.78677 35.8286C7.80995 35.8517 7.83312 35.8749 7.8563 35.8749C7.87947 35.8981 7.90265 35.9213 7.949 35.9444C7.97217 35.9676 7.97217 35.9676 7.99535 35.9676L8.01852 35.9908C8.06487 36.014 8.11122 36.0603 8.15757 36.0835L8.20392 36.1067C8.2271 36.1298 8.25027 36.1298 8.27345 36.153C8.29662 36.1762 8.34297 36.1994 8.36615 36.2225L8.4125 36.2457C8.5052 36.3152 8.57472 36.3616 8.66742 36.4311C8.71377 36.4543 8.73695 36.4775 8.7833 36.5006L8.80647 36.5238L8.89917 36.5933L8.99187 36.6629C9.03822 36.686 9.08457 36.7324 9.1541 36.7556C9.20045 36.7787 9.26997 36.8251 9.31632 36.8483H9.50172L9.73347 37.0568C9.75665 37.08 9.803 37.1032 9.84935 37.1264C9.91887 37.1727 9.9884 37.2191 10.0579 37.2422C10.1043 37.2654 10.1738 37.3118 10.2201 37.3349C10.5214 37.4972 10.8227 37.6594 11.124 37.7984C11.1935 37.8216 11.263 37.868 11.3325 37.8911C11.3325 37.8911 11.3557 37.8911 11.3557 37.9143C11.4252 37.9375 11.4716 37.9838 11.5411 38.007C11.7265 38.0997 11.9119 38.1924 12.1205 38.2619C12.1668 38.2851 12.2132 38.3083 12.2595 38.3315C12.2827 38.3315 12.2827 38.3546 12.3059 38.3546C12.3754 38.3778 12.4218 38.401 12.4913 38.4242C12.6535 38.4937 12.8157 38.54 12.978 38.6096C13.0243 38.6327 13.0938 38.6559 13.1402 38.6791C13.3951 38.7718 13.65 38.8645 13.8818 38.934C13.9281 38.9572 13.9745 38.9572 14.0208 38.9804C14.0904 39.0035 14.1599 39.0267 14.2526 39.0499L14.3221 39.0731C14.4148 39.0962 14.5075 39.1194 14.577 39.1426C14.6234 39.1658 14.6697 39.1658 14.7161 39.1889C15.2723 39.328 15.8285 39.467 16.3847 39.5597C16.4542 39.5829 16.5237 39.5829 16.6164 39.6061C16.7091 39.6293 16.7787 39.6293 16.8482 39.6524C16.9177 39.6756 17.0104 39.6756 17.0799 39.6756C18.0069 39.8147 18.9339 39.861 19.8841 39.861C20.8111 39.861 21.7613 39.7915 22.6883 39.6756H22.7115C22.781 39.6756 22.8505 39.6524 22.9432 39.6524L39.6524 22.9433C39.7682 23.036 39.7682 23.036 39.7682 23.036Z" fill="#222222"></path>
    </g>
    <defs>
      <clipPath id="clip0_1_18">
        <rect width="40" height="40" fill="white"></rect>
      </clipPath>
    </defs>
  </symbol>
  <symbol fill="none" xmlns="http://www.w3.org/2000/svg" viewBox="0 0 23 17" id="mail">
    <path d="M19.6115 0H2.73165C1.22485 0 0 1.22485 0 2.73165V14.2684C0 15.7752 1.22485 17 2.73165 17H19.6069C21.1137 17 22.3385 15.7752 22.3385 14.2684V2.73627C22.3431 1.22947 21.1183 0 19.6115 0ZM21.0952 14.2684C21.0952 15.0865 20.4296 15.752 19.6115 15.752H2.73165C1.91354 15.752 1.24796 15.0865 1.24796 14.2684V2.73627C1.24796 1.91816 1.91354 1.25258 2.73165 1.25258H19.6069C20.425 1.25258 21.0905 1.91816 21.0905 2.73627V14.2684H21.0952Z" fill="#005FA3"></path>
    <path d="M14.088 8.35667L19.5513 3.45727C19.8055 3.22617 19.8286 2.83329 19.5975 2.57445C19.3664 2.32024 18.9736 2.29713 18.7147 2.52823L11.1807 9.29033L9.71091 7.97766C9.70629 7.97304 9.70166 7.96842 9.70166 7.9638C9.66931 7.93144 9.63696 7.90371 9.59998 7.87598L3.61901 2.52361C3.36018 2.29251 2.9673 2.31562 2.73619 2.57445C2.50509 2.83329 2.5282 3.22617 2.78704 3.45727L8.31504 8.39827L2.81015 13.5519C2.56056 13.7876 2.54669 14.1805 2.78242 14.4347C2.90721 14.5641 3.07361 14.6335 3.24 14.6335C3.39253 14.6335 3.54506 14.578 3.66523 14.4671L9.25332 9.23949L10.7694 10.5938C10.8895 10.7001 11.0374 10.7509 11.1854 10.7509C11.3333 10.7509 11.4858 10.6954 11.6013 10.5891L13.159 9.19327L18.7147 14.4717C18.8349 14.5872 18.992 14.6427 19.1446 14.6427C19.311 14.6427 19.4727 14.578 19.5975 14.4486C19.8333 14.199 19.824 13.8015 19.5744 13.5658L14.088 8.35667Z" fill="#005FA3"></path>
  </symbol>
  <symbol fill="none" xmlns="http://www.w3.org/2000/svg" viewBox="0 0 10 18" id="phone">
    <path d="M8.8373 0H1.1627C0.523313 0 0 0.522821 0 1.1627V16.0511C0 16.6909 0.523313 17.2142 1.1627 17.2142H8.8373C9.47669 17.2142 10 16.6919 10 16.0515V1.1627C10 0.522821 9.47669 0 8.8373 0ZM3.77238 0.838088H6.22762C6.30533 0.838088 6.36829 0.901043 6.36829 0.979245C6.36829 1.05695 6.30533 1.11991 6.22762 1.11991H3.77238C3.69467 1.11991 3.63171 1.05695 3.63171 0.979245C3.63171 0.901043 3.69467 0.838088 3.77238 0.838088ZM5 16.6329C4.67883 16.6329 4.41865 16.3727 4.41865 16.0511C4.41865 15.7294 4.67883 15.4697 5 15.4697C5.32117 15.4697 5.58135 15.7294 5.58135 16.0511C5.58135 16.3727 5.32117 16.6329 5 16.6329ZM9.19093 15.0625H0.809069V1.84389H9.19093V15.0625Z" fill="#005FA3"></path>
  </symbol>
  <symbol fill="none" xmlns="http://www.w3.org/2000/svg" viewBox="0 0 17 17" id="place">
    <path d="M8.4882 0C5.05271 0 2.25781 2.7949 2.25781 6.23038C2.25781 7.80857 3.25222 10.0384 5.21354 12.8579C6.64711 14.919 8.05708 16.5139 8.11648 16.5808L8.4882 17L8.86005 16.5808C8.91932 16.5139 10.3293 14.919 11.763 12.8579C13.7242 10.0384 14.7187 7.80857 14.7187 6.23038C14.7187 2.7949 11.9237 0 8.4882 0ZM10.9525 12.2823C9.98351 13.6763 9.00414 14.876 8.4882 15.4881C7.97355 14.8777 6.99782 13.6825 6.02948 12.2903C4.21226 9.67793 3.2517 7.58237 3.2517 6.23038C3.2517 3.34301 5.60082 0.993889 8.4882 0.993889C11.3757 0.993889 13.7247 3.34301 13.7247 6.23038C13.7247 7.58095 12.7661 9.67365 10.9525 12.2823Z" fill="#005FA3"></path>
    <path d="M8.48821 2.30273C6.46062 2.30273 4.8111 3.95226 4.8111 5.97985C4.8111 8.00745 6.46062 9.6571 8.48821 9.6571C10.5159 9.6571 12.1655 8.00745 12.1655 5.97985C12.1655 3.95226 10.5159 2.30273 8.48821 2.30273ZM8.48821 8.66321C7.00873 8.66321 5.80499 7.45947 5.80499 5.97985C5.80499 4.50037 7.00873 3.29662 8.48821 3.29662C9.96783 3.29662 11.1716 4.50037 11.1716 5.97985C11.1716 7.45947 9.96783 8.66321 8.48821 8.66321Z" fill="#005FA3"></path>
  </symbol>
  <symbol fill="none" xmlns="http://www.w3.org/2000/svg" viewBox="0 0 17 17" id="time">
    <path d="M8.5 0C3.80558 0 0 3.80558 0 8.5C0 13.1944 3.80558 17 8.5 17C13.1944 17 17 13.1944 17 8.5C16.994 3.80809 13.1919 0.00601673 8.5 0ZM8.86465 16.2525V14.7574C8.86465 14.556 8.70138 14.3928 8.5 14.3928C8.29862 14.3928 8.13535 14.556 8.13535 14.7574V16.2525C4.13691 16.0616 0.938428 12.8631 0.747533 8.86465H2.2426C2.44398 8.86465 2.60725 8.70138 2.60725 8.5C2.60725 8.29862 2.44398 8.13535 2.2426 8.13535H0.747533C0.938428 4.13691 4.13691 0.938428 8.13535 0.747533V2.2426C8.13535 2.44398 8.29862 2.60725 8.5 2.60725C8.70138 2.60725 8.86465 2.44398 8.86465 2.2426V0.747533C12.8631 0.938428 16.0616 4.13691 16.2525 8.13535H14.7574C14.556 8.13535 14.3928 8.29862 14.3928 8.5C14.3928 8.70138 14.556 8.86465 14.7574 8.86465H14.761H16.2561C16.0651 12.8644 12.8645 16.0634 8.86465 16.2525Z" fill="#005FA3"></path>
    <path d="M12.3471 11.8911L8.86468 8.35037V4.67105C8.86468 4.46967 8.7014 4.3064 8.50003 4.3064C8.29865 4.3064 8.13538 4.46967 8.13538 4.67105V8.49988C8.13579 8.59555 8.17376 8.68722 8.24112 8.75513L11.8256 12.4016C11.9666 12.5456 12.1976 12.5481 12.3416 12.4071C12.4856 12.2661 12.4881 12.0351 12.3471 11.8911Z" fill="#005FA3"></path>
  </symbol>
</svg>