<svg width="40" height="30" viewBox="0 0 40 30" fill="none" xmlns="http://www.w3.org/2000/svg">
<path d="M34.6085 0H4.82055C2.1615 0 0 2.1615 0 4.82055V25.1794C0 27.8385 2.1615 30 4.82055 30H34.6003C37.2594 30 39.4209 27.8385 39.4209 25.1794V4.82871C39.429 2.16966 37.2675 0 34.6085 0ZM37.2268 25.1794C37.2268 26.6232 36.0522 27.7977 34.6085 27.7977H4.82055C3.37684 27.7977 2.20228 26.6232 2.20228 25.1794V4.82871C2.20228 3.38499 3.37684 2.21044 4.82055 2.21044H34.6003C36.044 2.21044 37.2186 3.38499 37.2186 4.82871V25.1794H37.2268Z" fill="white"/>
<path d="M24.8612 14.7472L34.5023 6.10121C34.9509 5.69338 34.9917 5.00006 34.5839 4.54329C34.176 4.09468 33.4827 4.0539 33.026 4.46173L19.7307 16.3948L17.1369 14.0784C17.1287 14.0702 17.1206 14.0621 17.1206 14.0539C17.0635 13.9968 17.0064 13.9479 16.9411 13.8989L6.38648 4.45357C5.92971 4.04574 5.2364 4.08652 4.82857 4.54329C4.42074 5.00006 4.46152 5.69338 4.91829 6.10121L14.6736 14.8206L4.95908 23.9152C4.51862 24.3312 4.49415 25.0245 4.91014 25.4732C5.13037 25.7015 5.424 25.8239 5.71764 25.8239C5.98681 25.8239 6.25598 25.726 6.46805 25.5303L16.3294 16.3051L19.0048 18.695C19.2168 18.8826 19.4778 18.9723 19.7388 18.9723C19.9999 18.9723 20.269 18.8745 20.4729 18.6869L23.2217 16.2236L33.026 25.5384C33.238 25.7423 33.5154 25.8402 33.7845 25.8402C34.0782 25.8402 34.3636 25.726 34.5839 25.4976C34.9999 25.0572 34.9835 24.3557 34.5431 23.9397L24.8612 14.7472Z" fill="white"/>
</svg>
